<?xml version="1.0" ?><svg height="600mm" id="svg4658" version="1.1" viewBox="0 0 2125.9843 2125.9842" width="600mm" xmlns="http://www.w3.org/2000/svg" xmlns:cc="http://creativecommons.org/ns#" xmlns:dc="http://purl.org/dc/elements/1.1/" xmlns:inkscape="http://www.inkscape.org/namespaces/inkscape" xmlns:rdf="http://www.w3.org/1999/02/22-rdf-syntax-ns#" xmlns:sodipodi="http://sodipodi.sourceforge.net/DTD/sodipodi-0.dtd" xmlns:svg="http://www.w3.org/2000/svg"><defs id="defs4660"/><g id="layer1" transform="translate(0,1073.6222)"><path d="m 167.70412,-696.46587 c -77.896505,0 -140.849323,67.91288 -142.845851,153.09496 l -1.308042,-0.95582 0,1175.32741 c 0,80.62402 63.730498,145.53309 142.894923,145.53309 l 7.33804,0 -6.41493,3.9953 1799.56224,0 c 79.1645,0 142.8952,-64.90908 142.8952,-145.5331 l 0,-1173.95099 0.3387,-0.24581 c 0,-87.12604 -63.7308,-157.26504 -142.8952,-157.26504 z" id="path4360" style="opacity:1;fill:#eeede9;fill-opacity:1;stroke:none;stroke-width:1;stroke-miterlimit:4;stroke-dasharray:none;stroke-opacity:1"/></g><g id="layer2"><g id="g4502" style="" transform="matrix(0.44566904,0,0,0.49839103,-961.90923,567.42735)"><path d="m 6006.0561,-198.50978 c -31.5759,7.65388 11.3452,43.56649 -39.0063,46.72418 -58.0526,3.64065 -11.8763,42.26138 -3.0935,59.647067 15.0112,29.71494 -30.7739,55.58966 -16.45,87.2058605 10.8456,24.2743995 39.0076,53.2242995 15.8462,79.3352995 -23.198,19.6838 -23.0821,52.577303 -0.033,72.493503 26.524,24.8031 3.6003,55.5578 -14.1103,76.8186 -18.653,31.2479 7.0698,42.6674 27.9282,60.3802 4.1822,3.5514 -36.2386,28.849 -18.9699,65.7874 8.762,18.7422 45.6243,2.8453 33.7121,32.6974 -7.5058,44.6266 41.6378,14.543 59.6471,3.0937 31.3486,-11.2081 55.589,30.7762 87.2057,16.4517 24.2744,-10.8455 53.2244,-39.0074 79.3353,-15.8462 19.684,23.1983 52.5779,23.082 72.4935,0.032 24.8031,-26.5256 55.5582,-3.6004 76.8186,14.1111 31.2484,18.6539 39.7836,-21.7489 66.4411,-27.9298 24.1194,-5.5924 29.8568,25.9614 60.7367,12.9099 18.084,-7.6433 -7.4268,-39.8785 24.1966,-33.1204 20.7113,4.4261 26.4495,-31.956 17.3229,-43.0173 -28.518,-34.5629 -13.576,-34.9125 5.0526,-52.374 20.9348,-29.1271 -19.4345,-50.0809 -24.9609,-76.3239 -4.3662,-31.6013 41.7693,-49.6167 28.4983,-82.146203 -13.9832,-21.4465 -37.8462,-46.8801 -17.0935,-72.8998 18.4643,-22.6434995 27.406,-54.4976 7.1729,-79.1887 -18.5109,-23.64385 14.6663,-46.26928 11.3032,-71.228657 -5.3406,-39.63498 -35.3125,-12.73598 -44.3244,-28.44497 -8.1053,-14.12867 -10.8962,-67.07742 -37.3188,-39.92808 -20.1736,20.72847 -28.6434,40.54045 -49.2021,9.99505 -19.9637,-29.82044 -54.7665,-16.26709 -74.686,5.31981 -28.6336,22.68031 -53.1395,-13.15731 -78.2231,-22.59445 -31.0733,-9.20425 -48.1564,37.98908 -79.9095,24.40216 -25.4325,-10.5677 -52.3598,-37.97726 -81.0577,-19.19837 -21.5669,16.01537 -49.3122,18.74788 -71.8586,0.7276 -7.4882,-5.98493 -14.7465,-5.99252 -23.4134,-3.8917 z" id="rect4443" style="opacity:1;fill:#ffffff;fill-opacity:1;stroke:none;stroke-width:1;stroke-miterlimit:4;stroke-dasharray:none;stroke-opacity:1"/><rect height="456.58896" id="rect4463" rx="3.5209" ry="22.395201" style="opacity:1;fill:#8bacee;fill-opacity:1;stroke:none;stroke-width:1;stroke-miterlimit:4;stroke-dasharray:none;stroke-opacity:1" width="448.50772" x="6018.4199" y="-126.05058"/><path d="m 6203.4386,-25.860746 151.5096,331.181326 c 0,13.97066 -1.7682,25.2178 -3.9646,25.2178 l -312.4366,0 c -2.1965,0 -3.9647,-11.24714 -3.9647,-25.2178 l 142.6598,-318.861852 c 8.4476,-18.881595 22.5369,-20.318905 26.1965,-12.319474 z" id="path4494" style="opacity:1;fill:#784b02;fill-opacity:1;stroke:none;stroke-width:1;stroke-miterlimit:4;stroke-dasharray:none;stroke-opacity:1"/><path d="m 6467.4473,-51.629266 c -1.0729,90.297983 0.6873,261.149176 -0.5197,359.772446 0,12.40694 -1.5703,22.3952 -3.5209,22.3952 l -441.4659,0 c -1.9506,0 -3.5209,-9.98826 -3.5209,-22.3952 82.3317,-54.5796 265.592,-183.28722 414.5383,-341.586315 8.7938,-9.346 14.227,-23.184887 34.4891,-18.186131 z" id="rect4489" style="opacity:1;fill:#8f5902;fill-opacity:1;stroke:none;stroke-width:1;stroke-miterlimit:4;stroke-dasharray:none;stroke-opacity:1"/><path d="m 6468.1616,-53.414981 c 1.1451,33.838149 -0.2876,84.610936 -0.1086,128.099876 0.03,7.392223 0.5087,15.2699 0.2109,22.071727 l -0.6913,15.791248 c -0.9195,21.00321 -20.7378,-27.743556 -29.7136,-28.785038 -17.4852,-2.028857 -34.8697,15.2479 -51.7808,10.362876 -11.8447,-3.421508 -14.8137,-22.638732 -26.8109,-25.479416 -15.7823,-3.736914 -46.555,14.143793 -46.555,14.143793 -1.5887,0.48267 2.4638,-2.228216 3.6943,-3.346319 39.0892,-35.51956 77.236,-73.709342 116.5518,-112.886901 8.5309,-8.500907 12.1436,-23.571738 35.2034,-19.971846 z" id="path4496" style="opacity:1;fill:#fffaf3;fill-opacity:1;stroke:none;stroke-width:1;stroke-miterlimit:4;stroke-dasharray:none;stroke-opacity:1"/><path d="m 6466.9276,286.14318 c 0.3386,12.51507 2.3491,44.3952 -3.5209,44.3952 l -441.4659,0 c -1.9506,0 -3.5209,-19.98826 -3.5209,-32.3952 63.8991,-59.00813 196.9638,10.90148 271.8911,-23.41676 54.4747,-24.95047 176.6166,11.41676 176.6166,11.41676 z" id="path4498" style="opacity:1;fill:#70a732;fill-opacity:1;stroke:none;stroke-width:1;stroke-miterlimit:4;stroke-dasharray:none;stroke-opacity:1"/><path d="m 6203.4386,-25.860746 c 0,0 24.8221,42.168566 30.0413,65.666612 1.2334,5.553181 4.3935,13.290426 0.1377,17.06498 -8.3056,7.366363 -22.709,-0.163386 -33.0333,-4.244278 -9.1737,-3.626068 -14.247,-15.823904 -23.9978,-17.316129 -8.6509,-1.323894 -24.9108,8.29227 -24.9108,8.29227 l 25.5664,-57.143981 c 8.4476,-18.881595 22.5369,-20.318905 26.1965,-12.319474 z" id="path4500" style="opacity:1;fill:#fffaf3;fill-opacity:1;stroke:none;stroke-width:1;stroke-miterlimit:4;stroke-dasharray:none;stroke-opacity:1"/></g><rect height="32.869926" id="rect4527" rx="6.5595441" ry="16.434963" style="display:inline;opacity:1;fill:#6d6b66;fill-opacity:1;stroke:none;stroke-width:10;stroke-miterlimit:4;stroke-dasharray:none;stroke-opacity:1" transform="translate(0,1073.6222)" width="997.28223" x="663.29578" y="37.932312"/><rect height="32.869926" id="rect4531" rx="4.8963985" ry="16.434963" style="display:inline;opacity:1;fill:#6d6b66;fill-opacity:1;stroke:none;stroke-width:10;stroke-miterlimit:4;stroke-dasharray:none;stroke-opacity:1" transform="translate(0,1073.6222)" width="744.42542" x="663.29578" y="374.08932"/><rect height="32.869926" id="rect4533" rx="6.5595441" ry="16.434963" style="display:inline;opacity:1;fill:#6d6b66;fill-opacity:1;stroke:none;stroke-width:10;stroke-miterlimit:4;stroke-dasharray:none;stroke-opacity:1" transform="translate(0,1073.6222)" width="997.28223" x="663.29578" y="201.77344"/><path d="m 1334.133,-411.58614 c 0,0 27.8863,-42.14718 56.5654,-37.30316 32.1371,5.42792 29.4618,56.46908 61.7293,58.3023 41.5491,2.36049 54.8299,-63.33088 96.3817,-65.53547 43.1881,-2.29141 88.8062,61.64868 88.8062,61.64868" id="path4629" style="display:inline;fill:none;fill-rule:evenodd;stroke:#ef2929;stroke-width:19.16542625;stroke-linecap:butt;stroke-linejoin:miter;stroke-miterlimit:4;stroke-dasharray:none;stroke-opacity:0.66860465" transform="translate(0,1073.6222)"/><rect height="25.40797" id="rect4635" rx="2.5918124" ry="12.703985" style="display:inline;opacity:1;fill:#6d6b66;fill-opacity:1;stroke:none;stroke-width:10;stroke-miterlimit:4;stroke-dasharray:none;stroke-opacity:1" transform="translate(0,1073.6222)" width="394.04697" x="127.97401" y="-589.27234"/><rect height="25.40797" id="rect4639" rx="2.5918124" ry="12.703985" style="display:inline;opacity:1;fill:#6d6b66;fill-opacity:1;stroke:none;stroke-width:10;stroke-miterlimit:4;stroke-dasharray:none;stroke-opacity:1" transform="translate(0,1073.6222)" width="394.04697" x="127.97401" y="-505.85797"/><path d="m 1328.1406,-490.19755 c 0,0 33.8787,-48.13957 62.5578,-43.29569 32.1371,5.42792 29.4618,56.46923 61.7293,58.30231 41.5491,2.36062 50.835,-71.32079 92.3869,-73.52523 43.188,-2.29142 92.801,69.63843 92.801,69.63843" id="path4643" style="display:inline;fill:none;fill-rule:evenodd;stroke:#ef2929;stroke-width:19.16542625;stroke-linecap:butt;stroke-linejoin:miter;stroke-miterlimit:4;stroke-dasharray:none;stroke-opacity:0.66860465" transform="translate(0,1073.6222)"/><g id="g4722" style="display:inline" transform="matrix(1.3982272,0,0,1.3982272,-7639.8477,-528.4751)"><ellipse cx="6334.6216" cy="808.92773" id="path4633" rx="65.078972" ry="64.028038" style="opacity:1;fill:none;fill-opacity:1;stroke:#ef2929;stroke-width:17.28207207;stroke-miterlimit:4;stroke-dasharray:none;stroke-opacity:0.66860465"/><path d="m 6370.1645,788.45058 c -1.309,-2.02375 -2.8582,-3.92406 -4.6569,-5.66078 -7.9749,-8.86826 -19.7455,-14.47849 -31.7578,-14.19336 -14.7416,-0.31181 -28.0481,9.15286 -35.1205,21.82054" id="ellipse4687" style="opacity:1;fill:none;fill-opacity:1;stroke:#ef2929;stroke-width:17.28207207;stroke-miterlimit:4;stroke-dasharray:none;stroke-opacity:0.66860465"/><path d="m 6370.1645,828.75284 c -1.309,2.02375 -2.8582,3.92406 -4.6569,5.66078 -7.9749,8.86826 -19.7455,14.47849 -31.7578,14.19336 -14.7416,0.31181 -28.0481,-9.15286 -35.1205,-21.82054" id="path4713" style="opacity:1;fill:none;fill-opacity:1;stroke:#ef2929;stroke-width:17.28207207;stroke-miterlimit:4;stroke-dasharray:none;stroke-opacity:0.66860465"/></g></g></svg>