<?xml version="1.0" encoding="iso-8859-1"?>
<!-- Generator: Adobe Illustrator 19.0.0, SVG Export Plug-In . SVG Version: 6.00 Build 0)  -->
<svg version="1.1" id="Capa_1" xmlns="http://www.w3.org/2000/svg" xmlns:xlink="http://www.w3.org/1999/xlink" x="0px" y="0px"
	 viewBox="0 0 512 512" style="enable-background:new 0 0 512 512;" xml:space="preserve">
<path style="fill:#B6E3EE;" d="M486.4,349.866c0-14.139,11.462-25.601,25.6-25.601v-42.666c-14.139,0-25.6-11.462-25.6-25.601
	c0-14.139,11.462-25.6,25.6-25.6v-42.665c-14.139,0-25.6-11.462-25.6-25.601c0-14.139,11.462-25.601,25.6-25.601V91.512
	c0-3.414-2.767-6.181-6.181-6.181H459.76c0,0.001,0,0.001,0,0.002c0,14.139-11.462,25.601-25.601,25.601
	c-14.139,0-25.601-11.462-25.601-25.601c0,0,0-0.001,0-0.002h-68.266c0,0.001,0,0.001,0,0.002c0,14.139-11.462,25.601-25.601,25.601
	c-14.139,0-25.601-11.462-25.601-25.601c0,0,0-0.001,0-0.002h-67.223c0,0.001,0,0.001,0,0.002c0,14.139-11.462,25.601-25.601,25.601
	s-25.601-11.462-25.601-25.601c0,0,0-0.001,0-0.002H102.4c0,0.001,0,0.001,0,0.002c0,14.139-11.462,25.601-25.601,25.601
	s-25.6-11.463-25.6-25.601c0,0,0-0.001,0-0.002H6.181C2.767,85.331,0,88.098,0,91.512v45.02c14.139,0,25.601,11.462,25.601,25.601
	c0,14.139-11.462,25.601-25.601,25.601v42.665c14.139,0,25.601,11.462,25.601,25.6C25.601,270.138,14.139,281.6,0,281.6v42.666
	c14.139,0,25.601,11.462,25.601,25.601S14.139,375.469,0,375.469v45.019c0,3.414,2.767,6.181,6.181,6.181h45.018
	c0-14.139,11.462-25.6,25.601-25.6s25.6,11.46,25.6,25.599h68.266c0-14.139,11.462-25.6,25.601-25.6s25.601,11.462,25.601,25.6
	h67.223c0-14.139,11.462-25.6,25.601-25.6c14.139,0,25.601,11.462,25.601,25.6h68.266c0-14.139,11.462-25.6,25.601-25.6
	c14.139,0,25.601,11.462,25.601,25.6h46.057c3.414,0,6.181-2.767,6.181-6.181v-45.019C497.861,375.467,486.4,364.006,486.4,349.866z
	"/>
<g>
	<path style="fill:#96D2E0;" d="M56.178,110.933c3.67,0,7.156-0.778,10.311-2.169c-9.003-3.967-15.29-12.963-15.29-23.432v-0.001
		H30.577v0.001C30.577,99.472,42.039,110.933,56.178,110.933z"/>
	<path style="fill:#96D2E0;" d="M294.069,110.933c3.67,0,7.156-0.778,10.311-2.169c-9.002-3.967-15.29-12.963-15.29-23.432v-0.001
		h-20.622v0.001C268.468,99.472,279.93,110.933,294.069,110.933z"/>
	<path style="fill:#96D2E0;" d="M175.645,110.933c3.669,0,7.156-0.778,10.311-2.169c-9.002-3.967-15.29-12.963-15.29-23.432v-0.001
		h-20.622v0.001C150.045,99.472,161.507,110.933,175.645,110.933z"/>
	<path style="fill:#96D2E0;" d="M413.536,110.933c3.67,0,7.156-0.778,10.311-2.169c-9.002-3.967-15.29-12.963-15.29-23.432v-0.001
		h-20.622v0.001C387.936,99.472,399.398,110.933,413.536,110.933z"/>
	<path style="fill:#96D2E0;" d="M512,136.532v-45.02c0-3.414-2.767-6.181-6.181-6.181h-20.622c3.414,0,6.181,2.767,6.181,6.181
		v39.444c0,2.995-2.159,5.491-5.095,6.083c-11.698,2.362-20.506,12.699-20.506,25.093s8.808,22.732,20.506,25.094
		c2.935,0.592,5.095,3.088,5.095,6.083v31.512c0,2.995-2.159,5.491-5.095,6.083c-11.698,2.362-20.506,12.699-20.506,25.093
		c0,12.394,8.808,22.731,20.506,25.093c2.935,0.592,5.095,3.088,5.095,6.083v31.513c0,2.995-2.159,5.491-5.095,6.083
		c-11.698,2.362-20.506,12.699-20.506,25.093s8.808,22.731,20.506,25.093c2.935,0.592,5.095,3.088,5.095,6.083v39.443
		c0,3.414-2.767,6.181-6.181,6.181h20.622c3.414,0,6.181-2.767,6.181-6.181v-45.019c-14.139,0-25.601-11.462-25.601-25.601
		s11.462-25.6,25.601-25.6v-42.666c-14.139,0-25.601-11.462-25.601-25.601c0-14.139,11.462-25.601,25.601-25.601V187.73
		c-14.139,0-25.601-11.462-25.601-25.601C486.4,147.994,497.861,136.532,512,136.532z"/>
	<path style="fill:#96D2E0;" d="M56.178,401.066c-14.139,0-25.601,11.462-25.601,25.6h20.622c0-10.47,6.287-19.465,15.29-23.432
		C63.333,401.844,59.847,401.066,56.178,401.066z"/>
	<path style="fill:#96D2E0;" d="M413.536,401.066c-14.139,0-25.6,11.462-25.6,25.6h20.622c0-10.47,6.287-19.465,15.29-23.432
		C420.692,401.844,417.206,401.066,413.536,401.066z"/>
	<path style="fill:#96D2E0;" d="M294.069,401.066c-14.139,0-25.601,11.462-25.601,25.6h20.622c0-10.47,6.287-19.465,15.29-23.432
		C301.225,401.844,297.739,401.066,294.069,401.066z"/>
	<path style="fill:#96D2E0;" d="M175.645,401.066c-14.139,0-25.6,11.462-25.6,25.6h20.622c0-10.47,6.287-19.465,15.29-23.432
		C182.8,401.844,179.314,401.066,175.645,401.066z"/>
</g>
<path style="fill:#00BCE7;" d="M454.619,375.467H57.38c-3.414,0-6.181-2.767-6.181-6.181V142.715c0-3.414,2.767-6.181,6.181-6.181
	h397.239c3.414,0,6.181,2.767,6.181,6.181v226.573C460.8,372.7,458.033,375.467,454.619,375.467z"/>
<path style="fill:#00BA88;" d="M454.619,375.467c3.414,0,6.181-2.767,6.181-6.181v-27.954l0,0L346.213,194.005
	c-2.475-3.182-7.283-3.182-9.758,0L256,297.447v78.021L454.619,375.467L454.619,375.467z"/>
<path style="fill:#00CE96;" d="M175.546,194.005c-2.474-3.182-7.283-3.182-9.758,0L51.2,341.332l-0.001,0.006v27.948
	c0,3.414,2.767,6.181,6.181,6.181h259.303L175.546,194.005z"/>
<g>
	<path style="fill:#FFFFFF;" d="M237.038,273.067h-46.743c-1.639,0-3.211-0.651-4.371-1.81l-10.886-10.886
		c-2.414-2.414-6.327-2.414-8.742,0l-10.885,10.886c-1.159,1.159-2.731,1.811-4.371,1.811h-46.744l61.493-79.061
		c2.474-3.182,7.283-3.182,9.758,0L237.038,273.067z"/>
	<path style="fill:#FFFFFF;" d="M275.027,273.067h47.069c1.639,0,3.212-0.651,4.371-1.811l10.885-10.886
		c2.414-2.414,6.327-2.414,8.742,0l10.886,10.886c1.159,1.159,2.731,1.81,4.371,1.81h46.354l-61.478-79.043
		c-2.479-3.187-7.299-3.18-9.769,0.013L275.027,273.067z"/>
</g>
<circle style="fill:#FFD151;" cx="247.47" cy="196.27" r="25.6"/>
<g>
</g>
<g>
</g>
<g>
</g>
<g>
</g>
<g>
</g>
<g>
</g>
<g>
</g>
<g>
</g>
<g>
</g>
<g>
</g>
<g>
</g>
<g>
</g>
<g>
</g>
<g>
</g>
<g>
</g>
</svg>
